# xmcd
#
# Track frame offsets:
#	150
#	18234
#	36942
#	54291
#	73081
#	90261
#	106031
#	120953
#	139488
#	157078
#	174426
#	193167
#	210339
#	225696
#
# Disc length: 3233 seconds
#
# Revision: 0
# Processed by: cddbd v1.5.1PL2 Copyright (c) Steve Scherf et al.
# Submitted via: dBpowerAMP V4.0
#
DISCID=b20c9f0e
DTITLE=Various Artist - Cannonball
DYEAR=2006
DGENRE=Country
TTITLE0=Pat Green - Cannonball
TTITLE1=Way Back Texas
TTITLE2=Love Like That
TTITLE3=Dixie Lullaby
TTITLE4=Feels Just Like It Should
TTITLE5=Missing Me
TTITLE6=Virginia Belle
TTITLE7=Finder's Keepers (duet with Sara Evans)
TTITLE8=Won't Let Love
TTITLE9=Lost Without You
TTITLE10=I'm Trying To Find It
TTITLE11=Love Had Something To Say
TTITLE12=Learn How To Live
TTITLE13=Sleeping With The Lights On
EXTD=
EXTT0=
EXTT1=
EXTT2=
EXTT3=
EXTT4=
EXTT5=
EXTT6=
EXTT7=
EXTT8=
EXTT9=
EXTT10=
EXTT11=
EXTT12=
EXTT13=
PLAYORDER=
